<svg width="79" height="26" viewBox="0 0 79 26" fill="none" xmlns="http://www.w3.org/2000/svg">
<path d="M12.7784 23.1375C18.6593 23.1375 23.4268 18.4289 23.4268 12.6205C23.4268 6.81214 18.6593 2.10352 12.7784 2.10352C6.89737 2.10352 2.12988 6.81214 2.12988 12.6205C2.12988 18.4289 6.89737 23.1375 12.7784 23.1375Z" stroke="black" stroke-width="1.00963" stroke-linecap="round" stroke-linejoin="round"/>
<path d="M17.2931 8.16138L15.0356 14.8502L8.26318 17.0798L10.5207 10.391L17.2931 8.16138Z" stroke="black" stroke-width="1.00963" stroke-linecap="round" stroke-linejoin="round"/>
<path d="M37.0265 15.5769L37.0175 10.9869L34.7405 14.8119H34.3265L32.0495 11.0139V15.5769H31.1855V9.2769H31.9235L34.5515 13.7049L37.1435 9.2769H37.8815L37.8905 15.5769H37.0265ZM40.4832 11.6079C40.6332 11.3319 40.8552 11.1219 41.1492 10.9779C41.4432 10.8339 41.8002 10.7619 42.2202 10.7619V11.5989C42.1722 11.5929 42.1062 11.5899 42.0222 11.5899C41.5542 11.5899 41.1852 11.7309 40.9152 12.0129C40.6512 12.2889 40.5192 12.6849 40.5192 13.2009V15.5769H39.6552V10.8069H40.4832V11.6079ZM44.6882 15.6309C44.2982 15.6309 43.9232 15.5799 43.5632 15.4779C43.2032 15.3699 42.9212 15.2349 42.7172 15.0729L43.0772 14.3889C43.2872 14.5389 43.5422 14.6589 43.8422 14.7489C44.1422 14.8389 44.4452 14.8839 44.7512 14.8839C45.5072 14.8839 45.8852 14.6679 45.8852 14.2359C45.8852 14.0919 45.8342 13.9779 45.7322 13.8939C45.6302 13.8099 45.5012 13.7499 45.3452 13.7139C45.1952 13.6719 44.9792 13.6269 44.6972 13.5789C44.3132 13.5189 43.9982 13.4499 43.7522 13.3719C43.5122 13.2939 43.3052 13.1619 43.1312 12.9759C42.9572 12.7899 42.8702 12.5289 42.8702 12.1929C42.8702 11.7609 43.0502 11.4159 43.4102 11.1579C43.7702 10.8939 44.2532 10.7619 44.8592 10.7619C45.1772 10.7619 45.4952 10.8009 45.8132 10.8789C46.1312 10.9569 46.3922 11.0619 46.5962 11.1939L46.2272 11.8779C45.8372 11.6259 45.3782 11.4999 44.8502 11.4999C44.4842 11.4999 44.2052 11.5599 44.0132 11.6799C43.8212 11.7999 43.7252 11.9589 43.7252 12.1569C43.7252 12.3129 43.7792 12.4359 43.8872 12.5259C43.9952 12.6159 44.1272 12.6819 44.2832 12.7239C44.4452 12.7659 44.6702 12.8139 44.9582 12.8679C45.3422 12.9339 45.6512 13.0059 45.8852 13.0839C46.1252 13.1559 46.3292 13.2819 46.4972 13.4619C46.6652 13.6419 46.7492 13.8939 46.7492 14.2179C46.7492 14.6499 46.5632 14.9949 46.1912 15.2529C45.8252 15.5049 45.3242 15.6309 44.6882 15.6309ZM54.737 12.3909H55.601V14.8479C55.289 15.1059 54.926 15.3039 54.512 15.4419C54.098 15.5799 53.666 15.6489 53.216 15.6489C52.58 15.6489 52.007 15.5109 51.497 15.2349C50.987 14.9529 50.585 14.5689 50.291 14.0829C50.003 13.5909 49.859 13.0389 49.859 12.4269C49.859 11.8149 50.003 11.2629 50.291 10.7709C50.585 10.2789 50.987 9.8949 51.497 9.6189C52.013 9.3429 52.592 9.2049 53.234 9.2049C53.738 9.2049 54.194 9.2889 54.602 9.4569C55.016 9.6189 55.367 9.8589 55.655 10.1769L55.097 10.7349C54.593 10.2489 53.984 10.0059 53.27 10.0059C52.79 10.0059 52.358 10.1109 51.974 10.3209C51.596 10.5249 51.299 10.8129 51.083 11.1849C50.867 11.5509 50.759 11.9649 50.759 12.4269C50.759 12.8829 50.867 13.2969 51.083 13.6689C51.299 14.0349 51.596 14.3229 51.974 14.5329C52.358 14.7429 52.787 14.8479 53.261 14.8479C53.825 14.8479 54.317 14.7129 54.737 14.4429V12.3909ZM61.6442 10.8069V15.5769H60.8252V14.8569C60.6512 15.1029 60.4202 15.2949 60.1322 15.4329C59.8502 15.5649 59.5412 15.6309 59.2052 15.6309C58.5692 15.6309 58.0682 15.4569 57.7022 15.1089C57.3362 14.7549 57.1532 14.2359 57.1532 13.5519V10.8069H58.0172V13.4529C58.0172 13.9149 58.1282 14.2659 58.3502 14.5059C58.5722 14.7399 58.8902 14.8569 59.3042 14.8569C59.7602 14.8569 60.1202 14.7189 60.3842 14.4429C60.6482 14.1669 60.7802 13.7769 60.7802 13.2729V10.8069H61.6442ZM63.289 10.8069H64.153V15.5769H63.289V10.8069ZM63.721 9.8889C63.553 9.8889 63.412 9.8349 63.298 9.7269C63.19 9.6189 63.136 9.4869 63.136 9.3309C63.136 9.1749 63.19 9.0429 63.298 8.9349C63.412 8.8209 63.553 8.7639 63.721 8.7639C63.889 8.7639 64.027 8.8179 64.135 8.9259C64.249 9.0279 64.306 9.1569 64.306 9.3129C64.306 9.4749 64.249 9.6129 64.135 9.7269C64.027 9.8349 63.889 9.8889 63.721 9.8889ZM70.3026 8.8989V15.5769H69.4746V14.8209C69.2826 15.0849 69.0396 15.2859 68.7456 15.4239C68.4516 15.5619 68.1276 15.6309 67.7736 15.6309C67.3116 15.6309 66.8976 15.5289 66.5316 15.3249C66.1656 15.1209 65.8776 14.8359 65.6676 14.4699C65.4636 14.0979 65.3616 13.6719 65.3616 13.1919C65.3616 12.7119 65.4636 12.2889 65.6676 11.9229C65.8776 11.5569 66.1656 11.2719 66.5316 11.0679C66.8976 10.8639 67.3116 10.7619 67.7736 10.7619C68.1156 10.7619 68.4306 10.8279 68.7186 10.9599C69.0066 11.0859 69.2466 11.2749 69.4386 11.5269V8.8989H70.3026ZM67.8456 14.8749C68.1456 14.8749 68.4186 14.8059 68.6646 14.6679C68.9106 14.5239 69.1026 14.3259 69.2406 14.0739C69.3786 13.8159 69.4476 13.5219 69.4476 13.1919C69.4476 12.8619 69.3786 12.5709 69.2406 12.3189C69.1026 12.0609 68.9106 11.8629 68.6646 11.7249C68.4186 11.5869 68.1456 11.5179 67.8456 11.5179C67.5396 11.5179 67.2636 11.5869 67.0176 11.7249C66.7776 11.8629 66.5856 12.0609 66.4416 12.3189C66.3036 12.5709 66.2346 12.8619 66.2346 13.1919C66.2346 13.5219 66.3036 13.8159 66.4416 14.0739C66.5856 14.3259 66.7776 14.5239 67.0176 14.6679C67.2636 14.8059 67.5396 14.8749 67.8456 14.8749ZM76.2484 13.2189C76.2484 13.2849 76.2424 13.3719 76.2304 13.4799H72.3604C72.4144 13.8999 72.5974 14.2389 72.9094 14.4969C73.2274 14.7489 73.6204 14.8749 74.0884 14.8749C74.6584 14.8749 75.1174 14.6829 75.4654 14.2989L75.9424 14.8569C75.7264 15.1089 75.4564 15.3009 75.1324 15.4329C74.8144 15.5649 74.4574 15.6309 74.0614 15.6309C73.5574 15.6309 73.1104 15.5289 72.7204 15.3249C72.3304 15.1149 72.0274 14.8239 71.8114 14.4519C71.6014 14.0799 71.4964 13.6599 71.4964 13.1919C71.4964 12.7299 71.5984 12.3129 71.8024 11.9409C72.0124 11.5689 72.2974 11.2809 72.6574 11.0769C73.0234 10.8669 73.4344 10.7619 73.8904 10.7619C74.3464 10.7619 74.7514 10.8669 75.1054 11.0769C75.4654 11.2809 75.7444 11.5689 75.9424 11.9409C76.1464 12.3129 76.2484 12.7389 76.2484 13.2189ZM73.8904 11.4909C73.4764 11.4909 73.1284 11.6169 72.8464 11.8689C72.5704 12.1209 72.4084 12.4509 72.3604 12.8589H75.4204C75.3724 12.4569 75.2074 12.1299 74.9254 11.8779C74.6494 11.6199 74.3044 11.4909 73.8904 11.4909Z" fill="black"/>
</svg>
