<svg width="122" height="46" viewBox="0 0 122 46" fill="none" xmlns="http://www.w3.org/2000/svg">
<path d="M22.8894 41.446C33.4239 41.446 41.9638 33.0115 41.9638 22.607C41.9638 12.2025 33.4239 3.76807 22.8894 3.76807C12.3549 3.76807 3.81494 12.2025 3.81494 22.607C3.81494 33.0115 12.3549 41.446 22.8894 41.446Z" stroke="black" stroke-width="1.80854" stroke-linecap="round" stroke-linejoin="round"/>
<path d="M30.9769 14.6191L26.9331 26.6007L14.8018 30.5946L18.8455 18.613L30.9769 14.6191Z" stroke="black" stroke-width="1.80854" stroke-linecap="round" stroke-linejoin="round"/>
<path d="M62.5919 27.3176L62.5789 20.6876L59.2899 26.2126H58.6919L55.4029 20.7266V27.3176H54.1549V18.2176H55.2209L59.0169 24.6136L62.7609 18.2176H63.8269L63.8399 27.3176H62.5919ZM67.5849 21.5846C67.8015 21.186 68.1222 20.8826 68.5469 20.6746C68.9715 20.4666 69.4872 20.3626 70.0939 20.3626V21.5716C70.0245 21.563 69.9292 21.5586 69.8079 21.5586C69.1319 21.5586 68.5989 21.7623 68.2089 22.1696C67.8275 22.5683 67.6369 23.1403 67.6369 23.8856V27.3176H66.3889V20.4276H67.5849V21.5846ZM73.6588 27.3956C73.0955 27.3956 72.5538 27.322 72.0338 27.1746C71.5138 27.0186 71.1065 26.8236 70.8118 26.5896L71.3318 25.6016C71.6352 25.8183 72.0035 25.9916 72.4368 26.1216C72.8702 26.2516 73.3078 26.3166 73.7498 26.3166C74.8418 26.3166 75.3878 26.0046 75.3878 25.3806C75.3878 25.1726 75.3142 25.008 75.1668 24.8866C75.0195 24.7653 74.8332 24.6786 74.6078 24.6266C74.3912 24.566 74.0792 24.501 73.6718 24.4316C73.1172 24.345 72.6622 24.2453 72.3068 24.1326C71.9602 24.02 71.6612 23.8293 71.4098 23.5606C71.1585 23.292 71.0328 22.915 71.0328 22.4296C71.0328 21.8056 71.2928 21.3073 71.8128 20.9346C72.3328 20.5533 73.0305 20.3626 73.9058 20.3626C74.3652 20.3626 74.8245 20.419 75.2838 20.5316C75.7432 20.6443 76.1202 20.796 76.4148 20.9866L75.8818 21.9746C75.3185 21.6106 74.6555 21.4286 73.8928 21.4286C73.3642 21.4286 72.9612 21.5153 72.6838 21.6886C72.4065 21.862 72.2678 22.0916 72.2678 22.3776C72.2678 22.603 72.3458 22.7806 72.5018 22.9106C72.6578 23.0406 72.8485 23.136 73.0738 23.1966C73.3078 23.2573 73.6328 23.3266 74.0488 23.4046C74.6035 23.5 75.0498 23.604 75.3878 23.7166C75.7345 23.8206 76.0292 24.0026 76.2718 24.2626C76.5145 24.5226 76.6358 24.8866 76.6358 25.3546C76.6358 25.9786 76.3672 26.477 75.8298 26.8496C75.3012 27.2136 74.5775 27.3956 73.6588 27.3956ZM88.1737 22.7156H89.4217V26.2646C88.9711 26.6373 88.4467 26.9233 87.8487 27.1226C87.2507 27.322 86.6267 27.4216 85.9767 27.4216C85.0581 27.4216 84.2304 27.2223 83.4937 26.8236C82.7571 26.4163 82.1764 25.8616 81.7517 25.1596C81.3357 24.449 81.1277 23.6516 81.1277 22.7676C81.1277 21.8836 81.3357 21.0863 81.7517 20.3756C82.1764 19.665 82.7571 19.1103 83.4937 18.7116C84.2391 18.313 85.0754 18.1136 86.0027 18.1136C86.7307 18.1136 87.3894 18.235 87.9787 18.4776C88.5767 18.7116 89.0837 19.0583 89.4997 19.5176L88.6937 20.3236C87.9657 19.6216 87.0861 19.2706 86.0547 19.2706C85.3614 19.2706 84.7374 19.4223 84.1827 19.7256C83.6367 20.0203 83.2077 20.4363 82.8957 20.9736C82.5837 21.5023 82.4277 22.1003 82.4277 22.7676C82.4277 23.4263 82.5837 24.0243 82.8957 24.5616C83.2077 25.0903 83.6367 25.5063 84.1827 25.8096C84.7374 26.113 85.3571 26.2646 86.0417 26.2646C86.8564 26.2646 87.5671 26.0696 88.1737 25.6796V22.7156ZM98.1507 20.4276V27.3176H96.9677V26.2776C96.7164 26.633 96.3827 26.9103 95.9667 27.1096C95.5594 27.3003 95.113 27.3956 94.6277 27.3956C93.709 27.3956 92.9854 27.1443 92.4567 26.6416C91.928 26.1303 91.6637 25.3806 91.6637 24.3926V20.4276H92.9117V24.2496C92.9117 24.917 93.072 25.424 93.3927 25.7706C93.7134 26.1086 94.1727 26.2776 94.7707 26.2776C95.4294 26.2776 95.9494 26.0783 96.3307 25.6796C96.712 25.281 96.9027 24.7176 96.9027 23.9896V20.4276H98.1507ZM100.527 20.4276H101.775V27.3176H100.527V20.4276ZM101.151 19.1016C100.908 19.1016 100.704 19.0236 100.54 18.8676C100.384 18.7116 100.306 18.521 100.306 18.2956C100.306 18.0703 100.384 17.8796 100.54 17.7236C100.704 17.559 100.908 17.4766 101.151 17.4766C101.393 17.4766 101.593 17.5546 101.749 17.7106C101.913 17.858 101.996 18.0443 101.996 18.2696C101.996 18.5036 101.913 18.703 101.749 18.8676C101.593 19.0236 101.393 19.1016 101.151 19.1016ZM110.657 17.6716V27.3176H109.461V26.2256C109.184 26.607 108.833 26.8973 108.408 27.0966C107.984 27.296 107.516 27.3956 107.004 27.3956C106.337 27.3956 105.739 27.2483 105.21 26.9536C104.682 26.659 104.266 26.2473 103.962 25.7186C103.668 25.1813 103.52 24.566 103.52 23.8726C103.52 23.1793 103.668 22.5683 103.962 22.0396C104.266 21.511 104.682 21.0993 105.21 20.8046C105.739 20.51 106.337 20.3626 107.004 20.3626C107.498 20.3626 107.953 20.458 108.369 20.6486C108.785 20.8306 109.132 21.1036 109.409 21.4676V17.6716H110.657ZM107.108 26.3036C107.542 26.3036 107.936 26.204 108.291 26.0046C108.647 25.7966 108.924 25.5106 109.123 25.1466C109.323 24.774 109.422 24.3493 109.422 23.8726C109.422 23.396 109.323 22.9756 109.123 22.6116C108.924 22.239 108.647 21.953 108.291 21.7536C107.936 21.5543 107.542 21.4546 107.108 21.4546C106.666 21.4546 106.268 21.5543 105.912 21.7536C105.566 21.953 105.288 22.239 105.08 22.6116C104.881 22.9756 104.781 23.396 104.781 23.8726C104.781 24.3493 104.881 24.774 105.08 25.1466C105.288 25.5106 105.566 25.7966 105.912 26.0046C106.268 26.204 106.666 26.3036 107.108 26.3036ZM119.246 23.9116C119.246 24.007 119.237 24.1326 119.22 24.2886H113.63C113.708 24.8953 113.972 25.385 114.423 25.7576C114.882 26.1216 115.45 26.3036 116.126 26.3036C116.949 26.3036 117.612 26.0263 118.115 25.4716L118.804 26.2776C118.492 26.6416 118.102 26.919 117.634 27.1096C117.174 27.3003 116.659 27.3956 116.087 27.3956C115.359 27.3956 114.713 27.2483 114.15 26.9536C113.586 26.6503 113.149 26.23 112.837 25.6926C112.533 25.1553 112.382 24.5486 112.382 23.8726C112.382 23.2053 112.529 22.603 112.824 22.0656C113.127 21.5283 113.539 21.1123 114.059 20.8176C114.587 20.5143 115.181 20.3626 115.84 20.3626C116.498 20.3626 117.083 20.5143 117.595 20.8176C118.115 21.1123 118.518 21.5283 118.804 22.0656C119.098 22.603 119.246 23.2183 119.246 23.9116ZM115.84 21.4156C115.242 21.4156 114.739 21.5976 114.332 21.9616C113.933 22.3256 113.699 22.8023 113.63 23.3916H118.05C117.98 22.811 117.742 22.3386 117.335 21.9746C116.936 21.602 116.438 21.4156 115.84 21.4156Z" fill="black"/>
</svg>
