<svg width="136" height="51" viewBox="0 0 136 51" fill="none" xmlns="http://www.w3.org/2000/svg">
<path d="M25.9028 46.5807C37.5526 46.5807 46.9966 37.2533 46.9966 25.7474C46.9966 14.2415 37.5526 4.91406 25.9028 4.91406C14.2531 4.91406 4.80908 14.2415 4.80908 25.7474C4.80908 37.2533 14.2531 46.5807 25.9028 46.5807Z" stroke="white" stroke-width="2" stroke-linecap="round" stroke-linejoin="round"/>
<path d="M34.8466 16.9141L30.3747 30.1641L16.9591 34.5807L21.431 21.3307L34.8466 16.9141Z" stroke="white" stroke-width="2" stroke-linecap="round" stroke-linejoin="round"/>
<path d="M68.6713 30.5806L68.6563 22.9306L64.8613 29.3056H64.1713L60.3763 22.9756V30.5806H58.9363V20.0806H60.1663L64.5463 27.4606L68.8663 20.0806H70.0963L70.1113 30.5806H68.6713ZM74.4325 23.9656C74.6825 23.5056 75.0525 23.1556 75.5425 22.9156C76.0325 22.6756 76.6275 22.5556 77.3275 22.5556V23.9506C77.2475 23.9406 77.1375 23.9356 76.9975 23.9356C76.2175 23.9356 75.6025 24.1706 75.1525 24.6406C74.7125 25.1006 74.4925 25.7606 74.4925 26.6206V30.5806H73.0525V22.6306H74.4325V23.9656ZM81.4409 30.6706C80.7909 30.6706 80.1659 30.5856 79.5659 30.4156C78.9659 30.2356 78.4959 30.0106 78.1559 29.7406L78.7559 28.6006C79.1059 28.8506 79.5309 29.0506 80.0309 29.2006C80.5309 29.3506 81.0359 29.4256 81.5459 29.4256C82.8059 29.4256 83.4359 29.0656 83.4359 28.3456C83.4359 28.1056 83.3509 27.9156 83.1809 27.7756C83.0109 27.6356 82.7959 27.5356 82.5359 27.4756C82.2859 27.4056 81.9259 27.3306 81.4559 27.2506C80.8159 27.1506 80.2909 27.0356 79.8809 26.9056C79.4809 26.7756 79.1359 26.5556 78.8459 26.2456C78.5559 25.9356 78.4109 25.5006 78.4109 24.9406C78.4109 24.2206 78.7109 23.6456 79.3109 23.2156C79.9109 22.7756 80.7159 22.5556 81.7259 22.5556C82.2559 22.5556 82.7859 22.6206 83.3159 22.7506C83.8459 22.8806 84.2809 23.0556 84.6209 23.2756L84.0059 24.4156C83.3559 23.9956 82.5909 23.7856 81.7109 23.7856C81.1009 23.7856 80.6359 23.8856 80.3159 24.0856C79.9959 24.2856 79.8359 24.5506 79.8359 24.8806C79.8359 25.1406 79.9259 25.3456 80.1059 25.4956C80.2859 25.6456 80.5059 25.7556 80.7659 25.8256C81.0359 25.8956 81.4109 25.9756 81.8909 26.0656C82.5309 26.1756 83.0459 26.2956 83.4359 26.4256C83.8359 26.5456 84.1759 26.7556 84.4559 27.0556C84.7359 27.3556 84.8759 27.7756 84.8759 28.3156C84.8759 29.0356 84.5659 29.6106 83.9459 30.0406C83.3359 30.4606 82.5009 30.6706 81.4409 30.6706ZM98.1888 25.2706H99.6288V29.3656C99.1088 29.7956 98.5038 30.1256 97.8138 30.3556C97.1238 30.5856 96.4038 30.7006 95.6538 30.7006C94.5938 30.7006 93.6388 30.4706 92.7888 30.0106C91.9388 29.5406 91.2688 28.9006 90.7788 28.0906C90.2988 27.2706 90.0588 26.3506 90.0588 25.3306C90.0588 24.3106 90.2988 23.3906 90.7788 22.5706C91.2688 21.7506 91.9388 21.1106 92.7888 20.6506C93.6488 20.1906 94.6138 19.9606 95.6838 19.9606C96.5238 19.9606 97.2838 20.1006 97.9638 20.3806C98.6538 20.6506 99.2388 21.0506 99.7188 21.5806L98.7888 22.5106C97.9488 21.7006 96.9338 21.2956 95.7438 21.2956C94.9438 21.2956 94.2238 21.4706 93.5838 21.8206C92.9538 22.1606 92.4588 22.6406 92.0988 23.2606C91.7388 23.8706 91.5588 24.5606 91.5588 25.3306C91.5588 26.0906 91.7388 26.7806 92.0988 27.4006C92.4588 28.0106 92.9538 28.4906 93.5838 28.8406C94.2238 29.1906 94.9388 29.3656 95.7288 29.3656C96.6688 29.3656 97.4888 29.1406 98.1888 28.6906V25.2706ZM109.701 22.6306V30.5806H108.336V29.3806C108.046 29.7906 107.661 30.1106 107.181 30.3406C106.711 30.5606 106.196 30.6706 105.636 30.6706C104.576 30.6706 103.741 30.3806 103.131 29.8006C102.521 29.2106 102.216 28.3456 102.216 27.2056V22.6306H103.656V27.0406C103.656 27.8106 103.841 28.3956 104.211 28.7956C104.581 29.1856 105.111 29.3806 105.801 29.3806C106.561 29.3806 107.161 29.1506 107.601 28.6906C108.041 28.2306 108.261 27.5806 108.261 26.7406V22.6306H109.701ZM112.442 22.6306H113.882V30.5806H112.442V22.6306ZM113.162 21.1006C112.882 21.1006 112.647 21.0106 112.457 20.8306C112.277 20.6506 112.187 20.4306 112.187 20.1706C112.187 19.9106 112.277 19.6906 112.457 19.5106C112.647 19.3206 112.882 19.2256 113.162 19.2256C113.442 19.2256 113.672 19.3156 113.852 19.4956C114.042 19.6656 114.137 19.8806 114.137 20.1406C114.137 20.4106 114.042 20.6406 113.852 20.8306C113.672 21.0106 113.442 21.1006 113.162 21.1006ZM124.132 19.4506V30.5806H122.752V29.3206C122.432 29.7606 122.027 30.0956 121.537 30.3256C121.047 30.5556 120.507 30.6706 119.917 30.6706C119.147 30.6706 118.457 30.5006 117.847 30.1606C117.237 29.8206 116.757 29.3456 116.407 28.7356C116.067 28.1156 115.897 27.4056 115.897 26.6056C115.897 25.8056 116.067 25.1006 116.407 24.4906C116.757 23.8806 117.237 23.4056 117.847 23.0656C118.457 22.7256 119.147 22.5556 119.917 22.5556C120.487 22.5556 121.012 22.6656 121.492 22.8856C121.972 23.0956 122.372 23.4106 122.692 23.8306V19.4506H124.132ZM120.037 29.4106C120.537 29.4106 120.992 29.2956 121.402 29.0656C121.812 28.8256 122.132 28.4956 122.362 28.0756C122.592 27.6456 122.707 27.1556 122.707 26.6056C122.707 26.0556 122.592 25.5706 122.362 25.1506C122.132 24.7206 121.812 24.3906 121.402 24.1606C120.992 23.9306 120.537 23.8156 120.037 23.8156C119.527 23.8156 119.067 23.9306 118.657 24.1606C118.257 24.3906 117.937 24.7206 117.697 25.1506C117.467 25.5706 117.352 26.0556 117.352 26.6056C117.352 27.1556 117.467 27.6456 117.697 28.0756C117.937 28.4956 118.257 28.8256 118.657 29.0656C119.067 29.2956 119.527 29.4106 120.037 29.4106ZM134.041 26.6506C134.041 26.7606 134.031 26.9056 134.011 27.0856H127.561C127.651 27.7856 127.956 28.3506 128.476 28.7806C129.006 29.2006 129.661 29.4106 130.441 29.4106C131.391 29.4106 132.156 29.0906 132.736 28.4506L133.531 29.3806C133.171 29.8006 132.721 30.1206 132.181 30.3406C131.651 30.5606 131.056 30.6706 130.396 30.6706C129.556 30.6706 128.811 30.5006 128.161 30.1606C127.511 29.8106 127.006 29.3256 126.646 28.7056C126.296 28.0856 126.121 27.3856 126.121 26.6056C126.121 25.8356 126.291 25.1406 126.631 24.5206C126.981 23.9006 127.456 23.4206 128.056 23.0806C128.666 22.7306 129.351 22.5556 130.111 22.5556C130.871 22.5556 131.546 22.7306 132.136 23.0806C132.736 23.4206 133.201 23.9006 133.531 24.5206C133.871 25.1406 134.041 25.8506 134.041 26.6506ZM130.111 23.7706C129.421 23.7706 128.841 23.9806 128.371 24.4006C127.911 24.8206 127.641 25.3706 127.561 26.0506H132.661C132.581 25.3806 132.306 24.8356 131.836 24.4156C131.376 23.9856 130.801 23.7706 130.111 23.7706Z" fill="white"/>
</svg>
