<svg width="35" height="22" viewBox="0 0 35 22" fill="none" xmlns="http://www.w3.org/2000/svg">
<path d="M1.22093 0C0.558616 0 0 0.55862 0 1.22093V20.7558C0 21.4181 0.558616 21.9767 1.22093 21.9767H33.7791C34.4414 21.9767 35 21.4181 35 20.7558V1.22093C35 0.55862 34.4414 0 33.7791 0H1.22093V0ZM1.62791 1.62791H33.3721V2.83614L17.5 14.4477L1.62791 2.83614V1.62791V1.62791ZM1.62791 4.85828L17.0167 16.1138C17.1567 16.217 17.3261 16.2728 17.5 16.2728C17.6739 16.2728 17.8433 16.217 17.9833 16.1138L33.3721 4.85828V20.3488H1.62791V4.85828V4.85828Z" fill="white" fill-opacity="0.75"/>
</svg>
