<svg width="14" height="14" viewBox="0 0 14 14" fill="none" xmlns="http://www.w3.org/2000/svg">
<path d="M4.6696 5.87103C4.63437 5.81308 4.6234 5.74359 4.63904 5.67761C4.65469 5.61162 4.6957 5.55446 4.75319 5.5185M4.6696 5.87103L3.50674 1.53416C3.76635 1.61623 4.33217 2.03978 5.20619 3.95125C5.33506 4.22275 5.36014 4.53201 5.27669 4.82072C5.19324 5.10943 5.00704 5.35763 4.75319 5.5185M4.6696 5.87103C5.11044 6.56591 5.62521 7.21102 6.20492 7.79509M4.6696 5.87103L6.20492 7.79509M4.75319 5.5185L4.67364 5.39133C4.6735 5.39142 4.67336 5.39151 4.67322 5.3916M4.75319 5.5185L4.6729 5.3918C4.673 5.39173 4.67311 5.39166 4.67322 5.3916M4.67322 5.3916C4.89596 5.25033 5.05935 5.03247 5.13259 4.77907C5.20586 4.52555 5.18384 4.25398 5.07068 4.01558L5.06976 4.01364L5.06977 4.01363C4.63558 3.06405 4.28153 2.49223 4.00878 2.1502C3.73495 1.80682 3.55148 1.70562 3.46152 1.67718L3.45943 1.67652L3.45944 1.67651C3.44028 1.67014 3.42028 1.66669 3.40011 1.66627C3.37946 1.66649 3.35924 1.67219 3.34151 1.68279L3.34018 1.68359L3.34017 1.68358C2.98723 1.88964 2.55088 2.20713 2.20764 2.51367C2.03582 2.66712 1.89147 2.81416 1.79316 2.94003C1.74392 3.00307 1.70916 3.05711 1.68799 3.10102C1.66568 3.14729 1.66489 3.16914 1.6652 3.17269L1.6652 3.17271C1.74611 4.11686 2.20344 5.17087 2.84222 6.18932C3.47943 7.20527 4.28904 8.17295 5.05799 8.94203C5.82693 9.7111 6.7946 10.5207 7.81057 11.1579C8.82863 11.7964 9.88228 12.2536 10.8262 12.3347C10.827 12.3347 10.8325 12.3347 10.8441 12.3317C10.8567 12.3284 10.8737 12.3221 10.8953 12.3115C10.9389 12.2901 10.9928 12.255 11.0558 12.2056C11.1816 12.107 11.3291 11.9625 11.4832 11.7909C11.791 11.448 12.1107 11.0127 12.3163 10.66C12.3262 10.643 12.3322 10.624 12.3338 10.6044C12.3354 10.5847 12.3326 10.565 12.3256 10.5466L12.3226 10.5386L12.3228 10.5385C12.2944 10.4486 12.1932 10.2651 11.8498 9.99129C11.5078 9.71855 10.936 9.3645 9.98637 8.93026L9.98463 8.92947L9.98464 8.92945C9.74597 8.81661 9.47429 8.79486 9.22071 8.86829C8.96713 8.94173 8.74911 9.10529 8.60768 9.32821L8.60733 9.32876C8.54986 9.41846 8.4597 9.48224 8.35598 9.50655C8.25226 9.53086 8.14315 9.51379 8.05181 9.45897L8.04863 9.45706L8.04865 9.45702C7.34462 9.0104 6.69102 8.48887 6.09925 7.90155L6.09846 7.90076C5.51112 7.30901 4.98958 6.65541 4.54294 5.95139L4.54139 5.94896L4.54142 5.94894C4.4857 5.85728 4.46834 5.74737 4.49309 5.643C4.5178 5.53879 4.5825 5.4485 4.67322 5.3916ZM6.20492 7.79509C6.789 8.37478 7.43412 8.88954 8.129 9.33036M6.20492 7.79509L8.129 9.33036M8.129 9.33036C8.18688 9.3651 8.25602 9.37591 8.32175 9.36051C8.38747 9.3451 8.44461 9.30469 8.48102 9.24785M8.129 9.33036L8.48102 9.24785M8.48102 9.24785C8.64205 8.99404 8.89027 8.80782 9.17898 8.72421C9.4677 8.6406 9.77702 8.66537 10.0488 8.79385M8.48102 9.24785L10.0488 8.79385M10.0488 8.79385C11.9602 9.66796 12.3838 10.2337 12.4658 10.4933L10.0488 8.79385ZM10.7572 13.1474C9.67594 13.0547 8.51069 12.5488 7.41985 11.8713C6.32654 11.1923 5.29569 10.3332 4.48121 9.51879C3.66671 8.70441 2.80761 7.67357 2.12861 6.58023C1.45101 5.48915 0.945105 4.3236 0.852577 3.24212L10.7572 13.1474ZM10.7572 13.1474C10.7789 13.1494 10.7995 13.15 10.8185 13.15C11.0902 13.15 11.3625 12.9994 11.6044 12.8071C11.8509 12.6113 12.0892 12.3535 12.2959 12.1002C12.7063 11.5973 13.0078 11.0929 13.0206 11.0711C13.0207 11.0709 13.0208 11.0708 13.0209 11.0707L12.8911 10.9954C12.9488 10.8969 12.9845 10.7871 12.996 10.6736C13.0074 10.5601 12.9944 10.4454 12.9576 10.3373L10.7572 13.1474ZM13.1001 10.2905C12.9882 9.93921 12.6892 9.59804 12.2339 9.25797C11.7753 8.91541 11.1404 8.56107 10.3276 8.18938C9.95498 8.00606 9.53147 7.9534 9.12523 8.0399C8.763 8.11703 8.43332 8.30079 8.17781 8.56601C7.64171 8.19704 7.13903 7.78159 6.6756 7.32443C6.21844 6.86093 5.80304 6.35814 5.43417 5.8219C5.69921 5.56634 5.88284 5.23668 5.95992 4.87454C6.04636 4.4684 5.99376 4.04501 5.81061 3.67239C5.43891 2.85966 5.08458 2.22473 4.74201 1.76608C4.40194 1.31077 4.06076 1.01183 3.70946 0.899874C3.5815 0.856586 3.44575 0.841211 3.31134 0.85479C3.17641 0.868421 3.04599 0.910912 2.92892 0.979382L2.92892 0.979383C2.90316 0.9945 2.38207 1.3065 1.87177 1.72719C1.61399 1.93971 1.35342 2.18445 1.16091 2.43667C0.972179 2.68391 0.828783 2.96425 0.852576 3.24211L13.1001 10.2905Z" fill="none" stroke="#394F28" stroke-width="0.3"/>
</svg>