<svg width="29" height="29" viewBox="0 0 29 29" fill="none" xmlns="http://www.w3.org/2000/svg">
<path d="M28.513 12.9641L26.0631 10.7318V3.32985C26.0631 2.85888 25.6813 2.47701 25.2103 2.47701H19.3132C18.8422 2.47701 18.4603 2.85883 18.4603 3.32985V3.80416L15.5017 1.10823C14.9306 0.587764 14.0693 0.58782 13.4985 1.10818L0.487139 12.9641C0.0297103 13.381 -0.121463 14.0233 0.10204 14.6004C0.3256 15.1775 0.869915 15.5504 1.48883 15.5504H3.56691V27.4291C3.56691 27.9001 3.94872 28.282 4.41974 28.282H11.5515C12.0225 28.282 12.4043 27.9002 12.4043 27.4291V20.2167H16.5958V27.4292C16.5958 27.9002 16.9776 28.282 17.4486 28.282H24.5801C25.0511 28.282 25.433 27.9002 25.4329 27.4292V15.5505H27.5114C28.1303 15.5505 28.6747 15.1775 28.8982 14.6005C29.1217 14.0233 28.9705 13.381 28.513 12.9641ZM24.5801 13.8448C24.1092 13.8448 23.7273 14.2266 23.7273 14.6976V26.5763H18.3015V19.3639C18.3015 18.8929 17.9197 18.5111 17.4487 18.5111H11.5515C11.0805 18.5111 10.6987 18.8929 10.6987 19.3639V26.5763H5.27252V14.6976C5.27252 14.2267 4.89071 13.8448 4.41969 13.8448H2.05308L14.5002 2.50307L18.7389 6.36545C18.9886 6.59292 19.349 6.65154 19.6578 6.5152C19.9668 6.3787 20.1661 6.07273 20.1661 5.73504V4.18269H24.3576V11.1085C24.3576 11.3485 24.4586 11.5772 24.636 11.7389L26.9471 13.8448H24.5801Z" fill="white"/>
</svg>
