<svg width="15" height="13" viewBox="0 0 15 13" fill="none" xmlns="http://www.w3.org/2000/svg">
<g clip-path="url(#clip0)">
<path d="M7.86453 3.92743C6.77889 3.92743 5.89569 4.71021 5.89569 5.67242C5.89569 6.63462 6.77891 7.4174 7.86453 7.4174C8.95014 7.4174 9.83336 6.6346 9.83336 5.67242C9.83336 4.71023 8.95016 3.92743 7.86453 3.92743ZM7.86453 6.64187C7.26133 6.64187 6.77073 6.20691 6.77073 5.67244C6.77073 5.13782 7.26133 4.70301 7.86453 4.70301C8.46772 4.70301 8.95832 5.13782 8.95832 5.67244C8.95832 6.20706 8.46772 6.64187 7.86453 6.64187Z" fill="#BDBDBD"/>
<path d="M7.86445 6.62897C6.24808 6.62897 4.93304 7.79449 4.93304 9.22707V9.80874C4.93304 10.0229 5.1289 10.1965 5.37058 10.1965C5.61223 10.1965 5.80811 10.0229 5.80811 9.80874V9.22707C5.80811 8.22207 6.73055 7.40452 7.86447 7.40452C8.9984 7.40452 9.92083 8.22222 9.92083 9.22707V9.80874C9.92083 10.0229 10.1167 10.1965 10.3584 10.1965C10.6 10.1965 10.7959 10.0229 10.7959 9.80874V9.22707C10.7958 7.79449 9.48081 6.62897 7.86445 6.62897Z" fill="#BDBDBD"/>
<path d="M11.8458 2.75116C10.7602 2.75116 9.87697 3.53396 9.87697 4.49615C9.87697 5.45833 10.7602 6.24113 11.8458 6.24113C12.9316 6.24113 13.8147 5.45833 13.8147 4.49615C13.8147 3.53396 12.9315 2.75116 11.8458 2.75116ZM11.8458 5.46558C11.2426 5.46558 10.752 5.03076 10.752 4.49615C10.752 3.96153 11.2426 3.52671 11.8458 3.52671C12.449 3.52671 12.9396 3.96153 12.9396 4.49615C12.9396 5.03076 12.449 5.46558 11.8458 5.46558Z" fill="#BDBDBD"/>
<path d="M11.846 5.4527C10.5052 5.4527 9.33533 6.25812 9.00135 7.41149C8.94127 7.61882 9.08228 7.83015 9.31621 7.88343C9.55027 7.9372 9.78858 7.81182 9.84868 7.60436C10.0835 6.79403 10.9049 6.22828 11.846 6.22828C12.9799 6.22828 13.9023 7.04598 13.9023 8.05084V8.63251C13.9023 8.84669 14.0982 9.0203 14.3399 9.0203C14.5815 9.0203 14.7774 8.84671 14.7774 8.63251V8.05082C14.7773 6.61825 13.4623 5.4527 11.846 5.4527Z" fill="#BDBDBD"/>
<path d="M3.88313 2.75116C2.79749 2.75116 1.91429 3.53396 1.91429 4.49615C1.91429 5.45833 2.79752 6.24113 3.88313 6.24113C4.96878 6.24113 5.85197 5.45833 5.85197 4.49615C5.85197 3.53396 4.96878 2.75116 3.88313 2.75116ZM3.88313 5.46558C3.27993 5.46558 2.78934 5.03076 2.78934 4.49615C2.78934 3.96153 3.27993 3.52671 3.88313 3.52671C4.48633 3.52671 4.97693 3.96153 4.97693 4.49615C4.97693 5.03076 4.48633 5.46558 3.88313 5.46558Z" fill="#BDBDBD"/>
<path d="M6.71313 7.39862C6.38121 6.25287 5.21739 5.45276 3.88294 5.45276C2.26657 5.45273 0.951538 6.61828 0.951538 8.05085V8.63252C0.951538 8.8467 1.14739 9.02031 1.38907 9.02031C1.63073 9.02031 1.82661 8.84673 1.82661 8.63252V8.05085C1.82661 7.04599 2.74904 6.22829 3.88297 6.22829C4.8178 6.22829 5.63305 6.78876 5.86553 7.59145C5.92561 7.79879 6.16318 7.92338 6.39814 7.87066C6.63218 7.81741 6.77322 7.60596 6.71313 7.39862Z" fill="#BDBDBD"/>
</g>
<defs>
<clipPath id="clip0">
<rect x="0.951538" y="0.346985" width="13.8257" height="12.2538" rx="4.62791" fill="white"/>
</clipPath>
</defs>
</svg>
