<svg width="14" height="12" viewBox="0 0 14 12" fill="none" xmlns="http://www.w3.org/2000/svg">
<g clip-path="url(#clip0)">
<path d="M7.20692 3.50629C6.14111 3.50629 5.27405 4.27286 5.27405 5.21514C5.27405 6.15742 6.14114 6.92399 7.20692 6.92399C8.27271 6.92399 9.1398 6.1574 9.1398 5.21514C9.1398 4.27288 8.27273 3.50629 7.20692 3.50629ZM7.20692 6.16452C6.61474 6.16452 6.13311 5.73857 6.13311 5.21516C6.13311 4.69161 6.61474 4.2658 7.20692 4.2658C7.7991 4.2658 8.28074 4.69161 8.28074 5.21516C8.28074 5.73871 7.7991 6.16452 7.20692 6.16452Z" fill="#8E8E8E"/>
<path d="M7.20684 6.15192C5.62 6.15192 4.32898 7.2933 4.32898 8.69622V9.26585C4.32898 9.47559 4.52126 9.6456 4.75852 9.6456C4.99576 9.6456 5.18807 9.47561 5.18807 9.26585V8.69622C5.18807 7.71203 6.09366 6.91141 7.20687 6.91141C8.32008 6.91141 9.22567 7.71217 9.22567 8.69622V9.26585C9.22567 9.47559 9.41795 9.6456 9.65522 9.6456C9.89246 9.6456 10.0848 9.47561 10.0848 9.26585V8.69622C10.0847 7.2933 8.79369 6.15192 7.20684 6.15192Z" fill="#8E8E8E"/>
<path d="M11.1156 2.35437C10.0498 2.35437 9.18274 3.12096 9.18274 4.06322C9.18274 5.00548 10.0498 5.77207 11.1156 5.77207C12.1816 5.77207 13.0485 5.00548 13.0485 4.06322C13.0485 3.12096 12.1814 2.35437 11.1156 2.35437ZM11.1156 5.01258C10.5234 5.01258 10.0418 4.58677 10.0418 4.06322C10.0418 3.53967 10.5234 3.11386 11.1156 3.11386C11.7078 3.11386 12.1894 3.53967 12.1894 4.06322C12.1894 4.58677 11.7078 5.01258 11.1156 5.01258Z" fill="#8E8E8E"/>
<path d="M11.1157 5C9.79947 5 8.65092 5.78874 8.32304 6.91823C8.26406 7.12127 8.40249 7.32822 8.63215 7.38039C8.86194 7.43306 9.09589 7.31027 9.1549 7.10711C9.38541 6.31356 10.1918 5.75952 11.1157 5.75952C12.2289 5.75952 13.1345 6.56029 13.1345 7.54434V8.11396C13.1345 8.32371 13.3268 8.49372 13.5641 8.49372C13.8013 8.49372 13.9936 8.32373 13.9936 8.11396V7.54431C13.9935 6.14141 12.7025 5 11.1157 5Z" fill="#8E8E8E"/>
<path d="M3.29812 2.35437C2.2323 2.35437 1.36523 3.12096 1.36523 4.06322C1.36523 5.00548 2.23233 5.77207 3.29812 5.77207C4.36393 5.77207 5.231 5.00548 5.231 4.06322C5.231 3.12096 4.36393 2.35437 3.29812 2.35437ZM3.29812 5.01258C2.70593 5.01258 2.2243 4.58677 2.2243 4.06322C2.2243 3.53967 2.70593 3.11386 3.29812 3.11386C3.8903 3.11386 4.37194 3.53967 4.37194 4.06322C4.37194 4.58677 3.8903 5.01258 3.29812 5.01258Z" fill="#8E8E8E"/>
<path d="M6.07665 6.90563C5.75079 5.7836 4.60823 5.00006 3.29815 5.00006C1.71131 5.00004 0.420288 6.14145 0.420288 7.54435V8.11398C0.420288 8.32372 0.612566 8.49374 0.849832 8.49374C1.08707 8.49374 1.27938 8.32374 1.27938 8.11398V7.54435C1.27938 6.5603 2.18496 5.75953 3.29818 5.75953C4.21593 5.75953 5.0163 6.30839 5.24453 7.09447C5.30351 7.29751 5.53675 7.41952 5.76741 7.36789C5.99718 7.31574 6.13564 7.10867 6.07665 6.90563Z" fill="#8E8E8E"/>
</g>
<defs>
<clipPath id="clip0">
<rect width="13.5732" height="12" fill="white" transform="translate(0.420288)"/>
</clipPath>
</defs>
</svg>
