<svg width="31" height="31" viewBox="0 0 31 31" fill="none" xmlns="http://www.w3.org/2000/svg">
<path d="M30.1611 23.5519C29.6696 22.0022 27.4466 20.3419 23.3651 18.4758C22.5002 18.0491 21.5167 17.9262 20.5734 18.127C19.63 18.3279 18.7819 18.8408 18.1659 19.5829C16.6911 18.5932 15.3125 17.4673 14.0482 16.2199C12.8009 14.9554 11.6751 13.5766 10.6857 12.1015C11.4273 11.4853 11.9398 10.6372 12.1405 9.69413C12.3412 8.75101 12.2185 7.76778 11.7921 6.90293C9.92605 2.8215 8.26581 0.598476 6.71607 0.106914C6.44359 0.014231 6.15436 -0.0187647 5.868 0.0101651C5.58164 0.0390949 5.30485 0.129273 5.05641 0.274583C5.00373 0.305021 -0.185379 3.39885 0.00511926 5.6231C0.457333 10.9088 4.97323 17.1452 9.04829 21.2197C13.1234 25.2942 19.3593 29.8107 24.645 30.263C24.685 30.2668 24.725 30.2681 24.7656 30.2681C26.9804 30.2681 29.9636 25.2632 29.9935 25.2117C30.1388 24.9632 30.2289 24.6864 30.2579 24.4001C30.2868 24.1137 30.2538 23.8244 30.1611 23.5519ZM28.8706 24.5561C27.8048 26.3837 25.5831 29.0313 24.7555 28.9672C19.819 28.5444 13.8799 24.2125 9.96807 20.3C6.05625 16.3875 1.7239 10.4489 1.30088 5.5126C1.22785 4.66151 3.88533 2.46392 5.71194 1.39748C5.816 1.33526 5.93495 1.30234 6.05619 1.30219C6.14686 1.30351 6.23679 1.31873 6.32285 1.34733C6.97765 1.55435 8.40486 2.62267 10.6094 7.44406C10.9345 8.12885 10.9977 8.90892 10.7872 9.63714C10.5768 10.3654 10.1071 10.9914 9.46682 11.3972C9.3218 11.4879 9.21836 11.6321 9.17889 11.7985C9.13943 11.9649 9.16712 12.1402 9.25596 12.2864C10.3679 14.0391 11.6663 15.6663 13.1286 17.1395C14.6018 18.6017 16.229 19.9001 17.9817 21.012C18.1277 21.0996 18.3021 21.1269 18.4679 21.088C18.6337 21.0492 18.7778 20.9472 18.8697 20.8038C19.2758 20.1637 19.9019 19.694 20.6302 19.4831C21.3584 19.2722 22.1386 19.3346 22.824 19.6587C27.6454 21.8635 28.7137 23.2905 28.9207 23.9453C28.9584 24.0444 28.9735 24.1507 28.9648 24.2564C28.9561 24.3621 28.9239 24.4645 28.8706 24.5561Z" fill="white"/>
</svg>
