<svg width="13" height="12" viewBox="0 0 13 12" fill="none" xmlns="http://www.w3.org/2000/svg">
<g clip-path="url(#clip0)">
<path d="M6.93237 2.29688C4.89047 2.29688 3.22925 3.9581 3.22925 6C3.22925 8.0419 4.89047 9.70312 6.93237 9.70312C8.97427 9.70312 10.6355 8.0419 10.6355 6C10.6355 3.9581 8.97427 2.29688 6.93237 2.29688ZM7.28394 6.35156H4.89331V5.64844H6.58081V2.91403H7.28394V6.35156Z" fill="#8E8E8E"/>
<path d="M11.175 1.75735C10.0418 0.624115 8.535 0 6.93237 0C5.32974 0 3.82297 0.624115 2.68973 1.75735C1.55649 2.89059 0.932373 4.39737 0.932373 6C0.932373 7.60263 1.55649 9.10941 2.68973 10.2426C3.82297 11.3759 5.32974 12 6.93237 12C8.535 12 10.0418 11.3759 11.175 10.2426C12.3083 9.10941 12.9324 7.60263 12.9324 6C12.9324 4.39737 12.3083 2.89059 11.175 1.75735ZM6.93237 10.4062C4.50275 10.4062 2.52612 8.42963 2.52612 6C2.52612 3.57037 4.50275 1.59375 6.93237 1.59375C9.362 1.59375 11.3386 3.57037 11.3386 6C11.3386 8.42963 9.362 10.4062 6.93237 10.4062Z" fill="#8E8E8E"/>
</g>
<defs>
<clipPath id="clip0">
<rect width="12" height="12" fill="white" transform="translate(0.932373)"/>
</clipPath>
</defs>
</svg>
