<svg width="13" height="13" viewBox="0 0 13 13" fill="none" xmlns="http://www.w3.org/2000/svg">
<g clip-path="url(#clip0)">
<path d="M6.26399 2.67126C4.18411 2.67126 2.49199 4.36762 2.49199 6.4527C2.49199 8.53778 4.18411 10.2341 6.26399 10.2341C8.34388 10.2341 10.036 8.53778 10.036 6.4527C10.036 4.36762 8.34388 2.67126 6.26399 2.67126ZM6.6221 6.81169H4.187V6.0937H5.90589V3.30147H6.6221V6.81169Z" fill="#BDBDBD"/>
<path d="M10.5854 2.12032C9.43104 0.963118 7.89623 0.325806 6.26379 0.325806C4.63135 0.325806 3.09655 0.963118 1.94223 2.12032C0.787915 3.27752 0.152191 4.81616 0.152191 6.45268C0.152191 8.0892 0.787915 9.62784 1.94223 10.785C3.09655 11.9422 4.63135 12.5796 6.26379 12.5796C7.89623 12.5796 9.43104 11.9422 10.5854 10.785C11.7397 9.62784 12.3754 8.0892 12.3754 6.45268C12.3754 4.81616 11.7397 3.27752 10.5854 2.12032ZM6.26379 10.9521C3.78898 10.9521 1.77559 8.93369 1.77559 6.45268C1.77559 3.97168 3.78898 1.95326 6.26379 1.95326C8.73861 1.95326 10.752 3.97168 10.752 6.45268C10.752 8.93369 8.73861 10.9521 6.26379 10.9521Z" fill="#BDBDBD"/>
</g>
<defs>
<clipPath id="clip0">
<rect x="0.152191" y="0.325806" width="12.2232" height="12.2538" rx="4.62791" fill="white"/>
</clipPath>
</defs>
</svg>
