<svg width="25" height="34" viewBox="0 0 25 34" fill="none" xmlns="http://www.w3.org/2000/svg">
<path d="M12.3702 34C12.1894 34 12.0447 33.9277 11.9 33.8191C11.7915 33.7106 8.89787 31.034 5.96808 27.0191C1.98936 21.6298 0 16.7106 0 12.3702C0 5.53404 5.53404 0 12.3702 0C19.2064 0 24.7404 5.53404 24.7404 12.3702C24.7404 16.7106 22.7511 21.5936 18.7723 27.0191C15.8426 30.9979 12.9489 33.7106 12.8404 33.8191C12.6957 33.9277 12.5511 34 12.3702 34ZM12.3702 1.37447C6.29362 1.37447 1.3383 6.32979 1.3383 12.4064C1.3383 20.9064 10.2 30.2745 12.3702 32.4085C13.3106 31.4681 15.517 29.1894 17.6872 26.2596C20.2915 22.7149 23.4021 17.4702 23.4021 12.4426C23.4021 6.29362 18.4468 1.37447 12.3702 1.37447Z" fill="white"/>
</svg>
