<svg width="20" height="20" viewBox="0 0 20 20" fill="none" xmlns="http://www.w3.org/2000/svg">
<path d="M14.5862 0H5.41382C2.42859 0 0 2.42859 0 5.41382V14.5863C0 17.5714 2.42859 20 5.41382 20H14.5863C17.5714 20 20 17.5714 20 14.5863V5.41382C20 2.42859 17.5714 0 14.5862 0V0ZM18.8275 14.5863C18.8275 16.9249 16.9249 18.8275 14.5862 18.8275H5.41382C3.0751 18.8275 1.17249 16.9249 1.17249 14.5863V5.41382C1.17249 3.0751 3.0751 1.17249 5.41382 1.17249H14.5863C16.9249 1.17249 18.8275 3.0751 18.8275 5.41382V14.5863Z" fill="black"/>
<path d="M11.8681 5.65884H12.9635V3.751C12.7745 3.725 12.1246 3.6665 11.3676 3.6665C9.78827 3.6665 8.70636 4.65992 8.70636 6.48577V8.16613H6.9635V10.299H8.70636V15.6655H10.8432V10.2995H12.5155L12.781 8.16663H10.8427V6.69725C10.8432 6.0808 11.0092 5.65884 11.8681 5.65884Z" fill="black"/>
</svg>
