<svg width="34" height="33" viewBox="0 0 34 33" fill="none" xmlns="http://www.w3.org/2000/svg">
<circle cx="16.925" cy="16.185" r="16.185" fill="#7C509A"/>
<path d="M21.986 8.53431C18.9015 7.94527 15.6984 7.94527 12.614 8.53431C11.2497 8.82883 9.52949 10.4781 9.23291 11.774C8.69906 14.3069 8.69906 16.8987 9.23291 19.4316C9.58881 20.7275 11.309 22.3768 12.614 22.6713C12.6733 22.6713 12.7326 22.7302 12.7326 22.7891V26.5001C12.7326 26.6768 12.9699 26.7946 13.0885 26.6179L14.868 24.7918C14.868 24.7918 16.2916 23.3192 16.5289 23.0836C16.5289 23.0836 16.5882 23.0247 16.6475 23.0247C18.427 23.0836 20.2658 22.9069 22.0453 22.6124C23.4096 22.3179 25.1298 20.6685 25.4264 19.3727C25.9602 16.8398 25.9602 14.248 25.4264 11.7151C25.0705 10.4781 23.3503 8.82883 21.986 8.53431ZM22.0453 19.6083C21.7487 20.1973 21.3928 20.6685 20.7997 20.9631C20.6217 21.022 20.4438 21.0809 20.2658 21.1398C20.0286 21.0809 19.8506 21.022 19.6727 20.9631C17.7745 20.1973 15.995 19.137 14.5714 17.6055C13.8003 16.722 13.1478 15.7206 12.614 14.6603C12.3767 14.1302 12.1394 13.659 11.9615 13.1288C11.7835 12.6576 12.0801 12.1864 12.3767 11.8329C12.6733 11.4795 13.0292 11.2439 13.4444 11.0672C13.741 10.8905 14.0376 11.0083 14.2748 11.2439C14.7494 11.8329 15.2239 12.422 15.5798 13.0699C15.8171 13.4823 15.7577 13.9535 15.3425 14.248C15.2239 14.3069 15.1646 14.3658 15.0459 14.4836C14.9866 14.5425 14.868 14.6014 14.8087 14.7192C14.69 14.8959 14.69 15.0727 14.7494 15.2494C15.2239 16.6042 16.1136 17.6644 17.4779 18.2535C17.7152 18.3713 17.8932 18.4302 18.1897 18.4302C18.605 18.3713 18.7829 17.9001 19.0795 17.6644C19.3761 17.4288 19.732 17.4288 20.0879 17.6055C20.3845 17.7822 20.681 18.0179 21.0369 18.2535C21.3335 18.4891 21.6301 18.6658 21.9267 18.9014C22.1046 19.0192 22.164 19.3138 22.0453 19.6083ZM19.554 15.1905C19.4354 15.1905 19.4947 15.1905 19.554 15.1905C19.3168 15.1905 19.2574 15.0727 19.1981 14.896C19.1981 14.7781 19.1981 14.6014 19.1388 14.4836C19.0795 14.248 18.9609 14.0124 18.7236 13.8357C18.605 13.7768 18.4863 13.7179 18.3677 13.659C18.1897 13.6001 18.0711 13.6001 17.8932 13.6001C17.7152 13.5412 17.6559 13.4233 17.6559 13.2466C17.6559 13.1288 17.8338 13.011 17.9525 13.011C18.9015 13.0699 19.6133 13.6001 19.732 14.7192C19.732 14.7781 19.732 14.8959 19.732 14.9549C19.732 15.0727 19.6727 15.1905 19.554 15.1905ZM18.9609 12.5987C18.6643 12.4809 18.3677 12.3631 18.0118 12.3042C17.8932 12.3042 17.7152 12.2453 17.5966 12.2453C17.4186 12.2453 17.3 12.1275 17.3593 11.9507C17.3593 11.774 17.4779 11.6562 17.6559 11.7151C18.2491 11.774 18.7829 11.8918 19.3168 12.1275C20.3845 12.6576 20.9776 13.5412 21.1556 14.7192C21.1556 14.7781 21.1556 14.837 21.1556 14.896C21.1556 15.0138 21.1556 15.1316 21.1556 15.3083C21.1556 15.3672 21.1556 15.4261 21.1556 15.485C21.0963 15.7206 20.681 15.7795 20.6217 15.485C20.6217 15.4261 20.5624 15.3083 20.5624 15.2494C20.5624 14.7192 20.4438 14.1891 20.2065 13.7179C19.8506 13.1877 19.4354 12.8343 18.9609 12.5987ZM22.164 16.1329C21.986 16.1329 21.8674 15.9562 21.8674 15.7795C21.8674 15.4261 21.8081 15.0727 21.7487 14.7192C21.5115 12.8343 19.9692 11.3028 18.1304 11.0083C17.8338 10.9494 17.5373 10.9494 17.3 10.8905C17.122 10.8905 16.8848 10.8905 16.8254 10.6549C16.7661 10.4781 16.9441 10.3014 17.122 10.3014C17.1813 10.3014 17.2407 10.3014 17.2407 10.3014C19.6727 10.3603 17.3593 10.3014 17.2407 10.3014C19.732 10.3603 21.8081 12.0097 22.2233 14.4836C22.2826 14.896 22.3419 15.3083 22.3419 15.7795C22.4605 15.9562 22.3419 16.1329 22.164 16.1329Z" fill="white"/>
</svg>
