<svg width="33" height="33" viewBox="0 0 33 33" fill="none" xmlns="http://www.w3.org/2000/svg">
<circle cx="16.555" cy="16.185" r="16.185" fill="url(#paint0_linear)"/>
<path d="M21.8807 9.71143H12.0389C10.9278 9.71143 10.0812 10.558 10.0812 11.6692V21.5109C10.0812 22.6221 10.9278 23.4687 12.0389 23.4687H21.8807C22.9918 23.4687 23.8384 22.6221 23.8384 21.5109V11.6692C23.8384 10.558 22.9918 9.71143 21.8807 9.71143ZM16.9598 20.7172C19.235 20.7172 21.087 18.9182 21.087 16.7488C21.087 16.3784 21.0341 15.9551 20.9282 15.6376H22.0923V21.2463C22.0923 21.5109 21.8807 21.7755 21.5632 21.7755H12.3564C12.0919 21.7755 11.8273 21.5638 11.8273 21.2463V15.5847H13.0443C12.9385 15.9551 12.8855 16.3255 12.8855 16.6959C12.8326 18.9182 14.6846 20.7172 16.9598 20.7172ZM16.9598 19.1298C15.4782 19.1298 14.3142 17.9658 14.3142 16.5371C14.3142 15.1085 15.4782 13.9444 16.9598 13.9444C18.4413 13.9444 19.6054 15.1085 19.6054 16.5371C19.6054 18.0187 18.4413 19.1298 16.9598 19.1298ZM22.0394 13.4682C22.0394 13.7857 21.7748 14.0502 21.4574 14.0502H19.9758C19.6583 14.0502 19.3938 13.7857 19.3938 13.4682V12.0396C19.3938 11.7221 19.6583 11.4575 19.9758 11.4575H21.4574C21.7748 11.4575 22.0394 11.7221 22.0394 12.0396V13.4682Z" fill="white"/>
<defs>
<linearGradient id="paint0_linear" x1="7.24862" y1="28.7284" x2="28.6937" y2="6.474" gradientUnits="userSpaceOnUse">
<stop stop-color="#EEA054"/>
<stop offset="0.502762" stop-color="#D64763"/>
<stop offset="1" stop-color="#B62A99"/>
</linearGradient>
</defs>
</svg>
