<svg width="33" height="33" viewBox="0 0 33 33" fill="none" xmlns="http://www.w3.org/2000/svg">
<circle cx="16.185" cy="16.185" r="16.185" fill="#4E6297"/>
<path d="M23.4684 11.1828C23.4684 9.97107 22.3992 8.90186 21.1874 8.90186H11.9922C10.7804 8.90186 9.71118 9.97107 9.71118 11.1828V20.3781C9.71118 21.5899 10.7804 22.6591 11.9922 22.6591H16.6254V17.4556H14.9147V15.1746H16.6254V14.2479C16.6254 12.6798 17.7659 11.3254 19.1916 11.3254H21.0449V13.6064H19.1916C18.9777 13.6064 18.7639 13.8202 18.7639 14.2479V15.1746H21.0449V17.4556H18.7639V22.6591H21.1874C22.3992 22.6591 23.4684 21.5899 23.4684 20.3781V11.1828Z" fill="white"/>
</svg>
