<svg width="20" height="20" viewBox="0 0 20 20" fill="none" xmlns="http://www.w3.org/2000/svg">
<path d="M14.5862 0H5.41381C2.42858 0 0 2.42858 0 5.41381V14.5863C0 17.5714 2.42858 20 5.41381 20H14.5863C17.5714 20 20 17.5714 20 14.5863V5.41381C20 2.42858 17.5714 0 14.5862 0V0ZM18.8275 14.5863C18.8275 16.9249 16.9249 18.8275 14.5862 18.8275H5.41381C3.0751 18.8275 1.17248 16.9249 1.17248 14.5863V5.41381C1.17248 3.0751 3.0751 1.17248 5.41381 1.17248H14.5863C16.9249 1.17248 18.8275 3.0751 18.8275 5.41381V14.5863Z" fill="black"/>
<path d="M9.99996 4.53125C6.98452 4.53125 4.53137 6.9844 4.53137 9.99984C4.53137 13.0153 6.98452 15.4684 9.99996 15.4684C13.0154 15.4684 15.4685 13.0153 15.4685 9.99984C15.4685 6.9844 13.0154 4.53125 9.99996 4.53125ZM9.99996 14.2959C7.63119 14.2959 5.70385 12.3688 5.70385 9.99984C5.70385 7.63107 7.63119 5.70373 9.99996 5.70373C12.3689 5.70373 14.2961 7.63107 14.2961 9.99984C14.2961 12.3688 12.3689 14.2959 9.99996 14.2959Z" fill="black"/>
<path d="M15.5994 2.58936C14.7083 2.58936 13.9835 3.3143 13.9835 4.20526C13.9835 5.09637 14.7083 5.82131 15.5994 5.82131C16.4905 5.82131 17.2154 5.09637 17.2154 4.20526C17.2154 3.31415 16.4905 2.58936 15.5994 2.58936ZM15.5994 4.64868C15.3549 4.64868 15.1559 4.4497 15.1559 4.20526C15.1559 3.96066 15.3549 3.76184 15.5994 3.76184C15.844 3.76184 16.0429 3.96066 16.0429 4.20526C16.0429 4.4497 15.844 4.64868 15.5994 4.64868Z" fill="black"/>
</svg>
