<svg width="21" height="21" viewBox="0 0 21 21" fill="none" xmlns="http://www.w3.org/2000/svg">
<g clip-path="url(#clip0)">
<path d="M15.4086 0.381592H6.12162C3.09908 0.381592 0.640137 2.81018 0.640137 5.7954V14.9679C0.640137 17.953 3.09908 20.3816 6.12162 20.3816H15.4088C18.4312 20.3816 20.8901 17.953 20.8901 14.9679V5.7954C20.8901 2.81018 18.4312 0.381592 15.4086 0.381592V0.381592ZM19.703 14.9679C19.703 17.3065 17.7766 19.2091 15.4086 19.2091H6.12162C3.75367 19.2091 1.82728 17.3065 1.82728 14.9679V5.7954C1.82728 3.45669 3.75367 1.55408 6.12162 1.55408H15.4088C17.7766 1.55408 19.703 3.45669 19.703 5.7954V14.9679Z" fill="white"/>
<path d="M10.7652 4.91296C7.71209 4.91296 5.22827 7.36611 5.22827 10.3816C5.22827 13.397 7.71209 15.8501 10.7652 15.8501C13.8183 15.8501 16.3022 13.397 16.3022 10.3816C16.3022 7.36611 13.8183 4.91296 10.7652 4.91296ZM10.7652 14.6777C8.36684 14.6777 6.41541 12.7505 6.41541 10.3816C6.41541 8.01278 8.36684 6.08545 10.7652 6.08545C13.1637 6.08545 15.115 8.01278 15.115 10.3816C15.115 12.7505 13.1637 14.6777 10.7652 14.6777Z" fill="white"/>
<path d="M16.4344 2.97083C15.5322 2.97083 14.7983 3.69577 14.7983 4.58673C14.7983 5.47784 15.5322 6.20278 16.4344 6.20278C17.3367 6.20278 18.0707 5.47784 18.0707 4.58673C18.0707 3.69562 17.3367 2.97083 16.4344 2.97083ZM16.4344 5.03015C16.1869 5.03015 15.9855 4.83117 15.9855 4.58673C15.9855 4.34213 16.1869 4.14331 16.4344 4.14331C16.6821 4.14331 16.8836 4.34213 16.8836 4.58673C16.8836 4.83117 16.6821 5.03015 16.4344 5.03015Z" fill="white"/>
</g>
<defs>
<clipPath id="clip0">
<rect width="20.25" height="20" fill="white" transform="translate(0.640137 0.381592)"/>
</clipPath>
</defs>
</svg>
