<svg width="23" height="21" viewBox="0 0 23 21" fill="none" xmlns="http://www.w3.org/2000/svg">
<g clip-path="url(#clip0)">
<path d="M22.8653 4.83764C21.4641 4.90848 21.4947 4.9027 21.3363 4.91724L22.1662 2.31743C22.1662 2.31743 19.5759 3.36276 18.9192 3.54976C17.1946 1.8493 14.6312 1.77417 12.7985 3.00985C11.2977 4.02199 10.4922 5.76011 10.7608 7.79167C7.84 7.34703 5.37903 5.82816 3.43606 3.26768L2.82154 2.458L2.36235 3.38308C1.78198 4.55202 1.58927 5.88856 1.81954 7.14643C1.91403 7.66247 2.07463 8.15466 2.29709 8.61552L1.76992 8.39143L1.70738 9.35771C1.64399 10.3393 1.9419 11.4851 2.50442 12.4225C2.66281 12.6865 2.86674 12.9764 3.12523 13.2624L2.85281 13.2165L3.18522 14.3237C3.62215 15.7785 4.52965 16.904 5.70737 17.5296C4.53118 18.0772 3.58102 18.4266 2.01923 18.9902L0.590332 19.5055L1.91012 20.297C2.41333 20.5989 4.19146 21.6069 5.94835 21.9093C9.85368 22.5812 14.2507 22.034 17.2108 19.1095C19.704 16.6461 20.5221 13.1421 20.3522 9.49567C20.3265 8.94364 20.4643 8.41678 20.7403 8.01241C21.2932 7.20273 22.8619 4.84304 22.8653 4.83764ZM19.6967 7.15481C19.2384 7.82616 19.0088 8.68357 19.0499 9.56875C19.2214 13.2469 18.3091 16.0993 16.3383 18.0464C14.036 20.3211 10.3226 21.2139 6.15041 20.496C5.39484 20.366 4.61394 20.075 3.96764 19.7844C5.27707 19.2901 6.28824 18.8496 7.92124 18.0017L10.2009 16.818L7.684 16.6413C6.47841 16.5566 5.47454 15.9157 4.85747 14.875C5.18513 14.8541 5.50106 14.796 5.81562 14.6998L8.21609 13.9663L5.79557 13.3161C4.61938 13.0001 3.94895 12.228 3.5936 11.6359C3.36026 11.2468 3.20782 10.8482 3.11639 10.4808C3.35907 10.5522 3.64203 10.6031 4.09833 10.6527L6.33871 10.8958L4.56364 9.37673C3.28464 8.28236 2.77208 6.63821 3.14783 5.05763C7.13949 9.59951 11.8262 9.25815 12.298 9.37822C12.1942 8.27174 12.1914 8.26913 12.1642 8.16379C11.5601 5.82089 12.8841 4.63126 13.4813 4.22856C14.7287 3.38756 16.7087 3.26078 18.0802 4.64636C18.3764 4.94539 18.777 5.06303 19.1519 4.96087C19.4884 4.86914 19.7645 4.77201 20.0349 4.6663L19.472 6.42959L20.1906 6.43015C20.055 6.62963 19.8923 6.86845 19.6967 7.15481Z" fill="white"/>
</g>
<defs>
<clipPath id="clip0">
<rect width="22.275" height="20" fill="white" transform="translate(0.590332 0.330688)"/>
</clipPath>
</defs>
</svg>
