<svg width="20" height="20" viewBox="0 0 20 20" fill="none" xmlns="http://www.w3.org/2000/svg">
<path d="M14.5862 0H5.41382C2.42859 0 0 2.42859 0 5.41382V14.5863C0 17.5714 2.42859 20 5.41382 20H14.5863C17.5714 20 20 17.5714 20 14.5863V5.41382C20 2.42859 17.5714 0 14.5862 0V0ZM18.8275 14.5863C18.8275 16.9249 16.9249 18.8275 14.5862 18.8275H5.41382C3.0751 18.8275 1.17249 16.9249 1.17249 14.5863V5.41382C1.17249 3.0751 3.0751 1.17249 5.41382 1.17249H14.5863C16.9249 1.17249 18.8275 3.0751 18.8275 5.41382V14.5863Z" fill="black"/>
<path fill-rule="evenodd" clip-rule="evenodd" d="M14.942 5.36751C13.814 4.23814 12.3138 3.6159 10.7155 3.61523C7.42218 3.61523 4.74187 6.29546 4.74055 9.58969C4.74011 10.6427 5.0152 11.6707 5.53809 12.5768L4.69043 15.6729L7.85786 14.842C8.73061 15.3181 9.71317 15.569 10.7131 15.5693H10.7156C14.0086 15.5693 16.6892 12.8888 16.6904 9.59447C16.6911 7.99792 16.0702 6.49682 14.942 5.36751ZM10.7155 14.5602H10.7135C9.82238 14.5599 8.94845 14.3204 8.18587 13.868L8.0046 13.7603L6.125 14.2534L6.6267 12.4209L6.50858 12.233C6.01145 11.4423 5.74894 10.5284 5.74938 9.59006C5.75041 6.85198 7.97826 4.62436 10.7175 4.62436C12.044 4.6248 13.2909 5.14202 14.2285 6.08071C15.1661 7.01941 15.6821 8.26713 15.6817 9.5941C15.6805 12.3324 13.4528 14.5602 10.7155 14.5602ZM13.4395 10.8409C13.2903 10.7661 12.5563 10.405 12.4194 10.3551C12.2826 10.3053 12.183 10.2805 12.0836 10.4299C11.984 10.5793 11.6979 10.9156 11.6108 11.0152C11.5237 11.1149 11.4367 11.1274 11.2874 11.0526C11.138 10.9779 10.657 10.8202 10.0867 10.3116C9.64296 9.91571 9.34336 9.42682 9.25622 9.27743C9.16923 9.12788 9.25549 9.05488 9.32172 8.97275C9.48334 8.77206 9.64517 8.56165 9.69492 8.46208C9.74474 8.36243 9.71979 8.27522 9.68241 8.20052C9.64517 8.12582 9.3466 7.39099 9.22222 7.09197C9.10094 6.80098 8.97796 6.84028 8.88626 6.83572C8.79928 6.83138 8.6997 6.83049 8.60013 6.83049C8.50063 6.83049 8.33887 6.86781 8.20198 7.01735C8.06517 7.16682 7.67954 7.52795 7.67954 8.26278C7.67954 8.99762 8.21449 9.70751 8.28912 9.80716C8.36374 9.90681 9.34189 11.4148 10.8395 12.0613C11.1957 12.2153 11.4737 12.3071 11.6906 12.3759C12.0482 12.4895 12.3736 12.4735 12.6309 12.4351C12.9178 12.3922 13.5141 12.0739 13.6386 11.7252C13.763 11.3764 13.763 11.0775 13.7256 11.0152C13.6884 10.9529 13.5888 10.9156 13.4395 10.8409Z" fill="black"/>
</svg>
