<svg width="21" height="21" viewBox="0 0 21 21" fill="none" xmlns="http://www.w3.org/2000/svg">
<g clip-path="url(#clip0)">
<path d="M9.0166 12.0402L12.3101 10.1667L9.0166 8.29321V12.0402Z" fill="white"/>
<path d="M18.9424 0.166626H1.61328C0.806656 0.166626 0.152832 0.812378 0.152832 1.60904V18.7242C0.152832 19.5209 0.806656 20.1666 1.61328 20.1666H18.9424C19.749 20.1666 20.4028 19.5209 20.4028 18.7242V1.60904C20.4028 0.812378 19.749 0.166626 18.9424 0.166626V0.166626ZM16.6044 10.1768C16.6044 10.1768 16.6044 12.2049 16.3439 13.1828C16.1979 13.7181 15.7706 14.1402 15.2286 14.2842C14.2385 14.5416 10.2778 14.5416 10.2778 14.5416C10.2778 14.5416 6.32754 14.5416 5.32703 14.274C4.78506 14.1299 4.35773 13.7077 4.21173 13.1725C3.9511 12.2049 3.9511 10.1666 3.9511 10.1666C3.9511 10.1666 3.9511 8.13873 4.21173 7.1608C4.35757 6.62552 4.79541 6.19308 5.32703 6.04904C6.31719 5.79163 10.2778 5.79163 10.2778 5.79163C10.2778 5.79163 14.2385 5.79163 15.2286 6.05927C15.7706 6.20331 16.1979 6.62552 16.3439 7.1608C16.6149 8.13873 16.6044 10.1768 16.6044 10.1768Z" fill="white"/>
</g>
<defs>
<clipPath id="clip0">
<rect width="20.25" height="20" fill="white" transform="translate(0.152832 0.166626)"/>
</clipPath>
</defs>
</svg>
